<?xml version="1.0" encoding="UTF-8"?><svg id="Calque_2" xmlns="http://www.w3.org/2000/svg" viewBox="0 0 236.44 236.43"><defs><style>.cls-1{stroke-width:0px;}</style></defs><g id="Calque_1-2"><path class="cls-1" d="M118.22,0C52.93,0,0,52.93,0,118.21s52.93,118.22,118.22,118.22,118.22-52.93,118.22-118.22S183.51,0,118.22,0ZM105.44,168.76c-.49-.16-.98-.31-1.47-.49-13.58-4.91-27.54-6.45-41.84-4.43-3.9.55-7.73,1.59-11.59,2.41v-83.26c2.24-.6,4.47-1.19,6.84-1.82v63.98c0,3.97.76,4.77,4.77,4.89,12.19.35,23.4,3.83,33.52,10.58,3.5,2.34,6.7,5.11,10.04,7.69-.09.15-.18.3-.27.45ZM115.23,169.92c-13.83-15.91-30.95-24.44-51.5-25.91V62.85c4.37.84,8.57,1.39,12.62,2.48,15.9,4.26,28.61,13.2,38.18,26.59.38.53.67,1.27.67,1.91.04,24.92.03,49.84.03,74.77v1.32ZM121.44,169.79c-.03-.62-.08-1.03-.08-1.44,0-24.81,0-49.61.03-74.41,0-.68.25-1.48.65-2.04,9.68-13.71,22.68-22.65,38.92-26.85,2.76-.71,5.6-1.1,8.42-1.57,1.12-.19,2.26-.21,3.47-.31v80.83c-20.62,1.51-37.71,10.02-51.41,25.79ZM185.88,84.56v81.57c-18.62-4.89-36.85-3.96-54.93,2.57.66-.64,1.31-1.29,1.98-1.91.68-.63,1.38-1.24,2.09-1.83,11.45-9.41,24.54-14.43,39.38-14.86.7-.02,1.41-.06,2.09-.2,1.43-.3,2.31-1.26,2.49-2.7.07-.53.05-1.06.05-1.59v-64.44c2.25.68,4.31,1.29,6.34,1.96.23.07.38.49.49.77.08.2.02.44.02.66Z"/></g></svg>