<?xml version="1.0" encoding="UTF-8"?>
<svg id="Calque_2" data-name="Calque 2" xmlns="http://www.w3.org/2000/svg" viewBox="0 0 237.07 237.07">
  <defs>
    <style>
      .cls-1, .cls-2 {
        stroke-width: 0px;
      }

      .cls-2 {
        fill: #fff;
      }
    </style>
  </defs>
  <g id="Calque_1-2" data-name="Calque 1">
    <circle class="cls-1" cx="118.53" cy="118.53" r="118.53"/>
    <g>
      <path class="cls-2" d="m36.86,137.07c.07-.08.15-.16.2-.25.76-1.44,1.96-2.12,3.57-2.2,2.58-.13,5.02-.77,7.2-2.2,3.48-2.29,5.26-5.59,5.35-9.71.09-4.04,0-8.08.03-12.12.1-16.68,5.07-31.74,15.33-44.92,9.17-11.79,20.93-20.04,35.14-24.72,9.6-3.16,19.47-4.29,29.53-3.38,17.46,1.59,32.46,8.52,44.92,20.91,7.45,7.4,13.26,15.88,17.13,25.67,2.61,6.6,4.23,13.44,4.75,20.52,1.41,19.49-4.05,36.84-16.35,52.01-4.66,5.75-10.18,10.59-16.34,14.68-.36.24-.71.47-1.09.73,1.04,2.85,1.42,5.75,1.22,8.73-.55,8.39-5.48,15.28-12.98,17.7-7.48,2.42-14.48,1.49-20.67-3.61-3.38-2.79-5.49-6.42-6.48-10.68-.09-.37-.15-.6-.62-.6-5.4.02-10.8.01-16.2.01-.09,0-.18.02-.23.03-.41,1.18-.74,2.36-1.2,3.48-3.12,7.62-10.83,13-19.96,12.6-8.8-.39-16.47-6.32-18.89-14.8-.77-2.7-.98-5.44-.53-8.21.1-.62-.07-.9-.62-1.19-7.38-3.88-14.1-8.66-19.83-14.76-4.66-4.96-8.68-10.36-11.29-16.7-.41-1-.71-2.04-1.06-3.07,0-1.32,0-2.63,0-3.95Zm9.32,5.23c5.79,11.84,15.38,19.84,26.57,26.12,4.75-6.61,11.01-10.15,19.05-9.32,9.75,1.01,15.92,6.56,18.46,16.18.15,0,.38,0,.6,0,5.22,0,10.44,0,15.66,0,4.55,0,9.06-.39,13.52-1.33,12.54-2.65,23.44-8.41,32.61-17.38,15.65-15.28,22.55-37.11,18.19-58.55-3.7-18.21-13.57-32.36-29.18-42.38-11.55-7.42-24.3-10.69-38.02-10.1-6.52.28-12.87,1.49-19.02,3.68-11.02,3.92-20.27,10.41-27.78,19.37-10.13,12.09-15.28,26.03-15.46,41.8-.05,4.17.12,8.36-.04,12.53-.31,7.85-3.9,13.79-10.84,17.57-1.32.72-2.78,1.18-4.32,1.81Z"/>
      <path class="cls-2" d="m134.85,142.63c-13.25-.59-23.14-6.55-29.34-18.41-.89-1.7-.68-3.35.49-4.6,1.17-1.26,3.08-1.67,4.76-.98,1.13.46,1.97,1.25,2.54,2.35,3.76,7.36,9.76,11.77,17.88,13.09,10.69,1.74,20.82-3.53,25.8-13.18.98-1.89,2.59-2.83,4.37-2.53,2.77.46,4.21,3.31,2.91,5.88-4.14,8.21-10.55,13.84-19.28,16.76-3.27,1.1-6.65,1.59-10.13,1.63Z"/>
      <path class="cls-2" d="m110.41,85.87c4.53,0,8.15,3.64,8.14,8.18,0,4.51-3.68,8.16-8.19,8.15-4.51-.01-8.15-3.68-8.14-8.2,0-4.52,3.65-8.14,8.19-8.13Z"/>
      <path class="cls-2" d="m159.44,85.87c4.53,0,8.15,3.65,8.13,8.19-.01,4.51-3.68,8.16-8.2,8.14-4.51-.01-8.15-3.69-8.13-8.21.01-4.52,3.66-8.13,8.2-8.12Z"/>
    </g>
  </g>
</svg>