<?xml version="1.0" encoding="utf-8"?>
<!-- Generator: Adobe Illustrator 28.0.0, SVG Export Plug-In . SVG Version: 6.00 Build 0)  -->
<svg version="1.1" id="Calque_1" xmlns="http://www.w3.org/2000/svg" xmlns:xlink="http://www.w3.org/1999/xlink" x="0px" y="0px"
	 viewBox="0 0 612 792" style="enable-background:new 0 0 612 792;" xml:space="preserve">
<style type="text/css">
	.st0{fill:#010202;}
	.st1{fill:#FFFFFF;}
</style>
<circle class="st0" cx="305.9" cy="406.7" r="152.8"/>
<g>
	<path class="st1" d="M200.7,430.6c0.1-0.1,0.2-0.2,0.3-0.3c1-1.9,2.5-2.7,4.6-2.8c3.3-0.2,6.5-1,9.3-2.8c4.5-3,6.8-7.2,6.9-12.5
		c0.1-5.2,0-10.4,0-15.6c0.1-21.5,6.5-40.9,19.8-57.9c11.8-15.2,27-25.8,45.3-31.9c12.4-4.1,25.1-5.5,38.1-4.4
		c22.5,2,41.8,11,57.9,26.9c9.6,9.5,17.1,20.5,22.1,33.1c3.4,8.5,5.5,17.3,6.1,26.5c1.8,25.1-5.2,47.5-21.1,67
		c-6,7.4-13.1,13.7-21.1,18.9c-0.5,0.3-0.9,0.6-1.4,0.9c1.3,3.7,1.8,7.4,1.6,11.2c-0.7,10.8-7.1,19.7-16.7,22.8
		c-9.6,3.1-18.7,1.9-26.6-4.6c-4.4-3.6-7.1-8.3-8.3-13.8c-0.1-0.5-0.2-0.8-0.8-0.8c-7,0-13.9,0-20.9,0c-0.1,0-0.2,0-0.3,0
		c-0.5,1.5-1,3-1.6,4.5c-4,9.8-14,16.8-25.7,16.2c-11.3-0.5-21.2-8.2-24.3-19.1c-1-3.5-1.3-7-0.7-10.6c0.1-0.8-0.1-1.2-0.8-1.5
		c-9.5-5-18.2-11.2-25.6-19c-6-6.4-11.2-13.3-14.6-21.5c-0.5-1.3-0.9-2.6-1.4-4C200.7,434,200.7,432.3,200.7,430.6z M212.7,437.4
		c7.5,15.3,19.8,25.6,34.2,33.7c6.1-8.5,14.2-13.1,24.6-12c12.6,1.3,20.5,8.5,23.8,20.9c0.2,0,0.5,0,0.8,0c6.7,0,13.5,0,20.2,0
		c5.9,0,11.7-0.5,17.4-1.7c16.2-3.4,30.2-10.8,42-22.4c20.2-19.7,29.1-47.8,23.4-75.5c-4.8-23.5-17.5-41.7-37.6-54.6
		c-14.9-9.6-31.3-13.8-49-13c-8.4,0.4-16.6,1.9-24.5,4.7c-14.2,5.1-26.1,13.4-35.8,25c-13.1,15.6-19.7,33.5-19.9,53.9
		c-0.1,5.4,0.2,10.8-0.1,16.1c-0.4,10.1-5,17.8-14,22.7C216.6,436,214.7,436.6,212.7,437.4z"/>
	<path class="st1" d="M327,437.8c-17.1-0.8-29.8-8.4-37.8-23.7c-1.1-2.2-0.9-4.3,0.6-5.9c1.5-1.6,4-2.1,6.1-1.3
		c1.5,0.6,2.5,1.6,3.3,3c4.8,9.5,12.6,15.2,23,16.9c13.8,2.2,26.8-4.6,33.2-17c1.3-2.4,3.3-3.6,5.6-3.3c3.6,0.6,5.4,4.3,3.8,7.6
		c-5.3,10.6-13.6,17.8-24.8,21.6C335.8,437.1,331.5,437.8,327,437.8z"/>
	<path class="st1" d="M295.5,364.6c5.8,0,10.5,4.7,10.5,10.5c0,5.8-4.7,10.5-10.6,10.5c-5.8,0-10.5-4.7-10.5-10.6
		C284.9,369.3,289.6,364.6,295.5,364.6z"/>
	<path class="st1" d="M358.7,364.6c5.8,0,10.5,4.7,10.5,10.6c0,5.8-4.7,10.5-10.6,10.5c-5.8,0-10.5-4.8-10.5-10.6
		C348.1,369.3,352.8,364.6,358.7,364.6z"/>
</g>
</svg>
