<?xml version="1.0" encoding="UTF-8"?><svg id="Calque_2" xmlns="http://www.w3.org/2000/svg" viewBox="0 0 1026.2 234.99"><defs><style>.cls-1,.cls-2{stroke-width:0px;}.cls-2{fill:#ffcf03;}</style></defs><g id="Calque_1-2"><rect class="cls-1" x="342.28" y="85.03" width="44.76" height="85.07"/><rect class="cls-1" x="815.6" y="13.38" width="44.76" height="156.72"/><path class="cls-1" d="M646.69,169.94v-44.76c0-39.33-32-71.33-71.33-71.33-19.13,0-36.51,7.58-49.33,19.88-12.82-12.3-30.2-19.88-49.33-19.88-12.04,0-23.39,3.01-33.35,8.3l-38.11.12.13,108.04h44v-45.13c0-15.07,12.26-27.33,27.33-27.33s27.33,12.26,27.33,27.33v45.13h44v-45.13c0-15.07,12.26-27.33,27.33-27.33s27.33,12.26,27.33,27.33v44.76h44Z"/><path class="cls-1" d="M729.84.59h-157.25L91.52,0c-28.58,0-51.84,23.25-51.84,51.84s23.25,51.84,51.85,51.84l180.27-.09c5.84,0,10.59,5.03,10.59,11.22s-4.75,11.22-10.59,11.22H0v44h271.81c30.1,0,54.59-24.77,54.59-55.22s-24.49-55.22-54.6-55.22l-180.28.09c-4.32,0-7.84-3.52-7.84-7.84s3.52-7.84,7.81-7.84l236.16.29c0-17.93,16.89-34.09,38.01-34.09s38.81,16.16,38.81,34.39h261.46v125.48h44.76v-26.81h19.14c39.33,0,71.33-32,71.33-71.33S769.17.59,729.84.59ZM729.84,99.25h-19.14v-54.66h19.14c15.07,0,27.33,12.26,27.33,27.33s-12.26,27.33-27.33,27.33Z"/><circle class="cls-2" cx="365.67" cy="48.17" r="28.41"/><path class="cls-1" d="M982.2,15.72v8.52h-.03v46.04c0,15.07-12.26,27.33-27.33,27.33s-27.33-12.26-27.33-27.33V13.38h-44v56.89c0,39.33,32,71.33,71.33,71.33,9.69,0,18.93-1.95,27.36-5.47v24.42c0,15.07-12.26,27.33-27.33,27.33l-225.28.3v43.41l225.28.3c39.33,0,71.33-32,71.33-71.33V15.72h-44Z"/><polygon class="cls-1" points="323.47 187.89 1.09 187.89 1.09 231.89 323.47 231.74 323.47 187.89"/><rect class="cls-1" x="405.24" y="187.89" width="99.51" height="44"/><rect class="cls-1" x="548.05" y="187.89" width="100.8" height="44"/><path class="cls-1" d="M342.28,185.33h28.25c4.71,0,8.32,1.17,10.84,3.5,2.52,2.33,3.78,5.22,3.78,8.66,0,2.89-.9,5.36-2.7,7.43-1.2,1.38-2.95,2.46-5.26,3.26,3.51.84,6.09,2.29,7.74,4.35,1.65,2.05,2.48,4.64,2.48,7.74,0,2.53-.59,4.81-1.77,6.83-1.18,2.02-2.79,3.62-4.83,4.8-1.27.73-3.18,1.27-5.73,1.6-3.4.44-5.65.67-6.76.67h-26.05v-48.83ZM357.51,204.48h6.56c2.35,0,3.99-.4,4.91-1.22.92-.81,1.38-1.98,1.38-3.51,0-1.42-.46-2.53-1.38-3.33-.92-.8-2.53-1.2-4.81-1.2h-6.66v9.26ZM357.51,223.67h7.69c2.6,0,4.43-.46,5.5-1.38,1.07-.92,1.6-2.16,1.6-3.71,0-1.44-.53-2.6-1.58-3.48-1.05-.88-2.9-1.32-5.55-1.32h-7.66v9.89Z"/><path class="cls-1" d="M519.12,185.33h15.12v48.83h-15.12v-48.83Z"/><path class="cls-1" d="M690.54,216.47v-10.16h23.32v20.82c-4.46,3.04-8.41,5.11-11.84,6.21-3.43,1.1-7.5,1.65-12.21,1.65-5.79,0-10.52-.99-14.17-2.96-3.65-1.98-6.48-4.92-8.49-8.83s-3.01-8.39-3.01-13.46c0-5.33,1.1-9.96,3.3-13.91,2.2-3.94,5.42-6.93,9.66-8.98,3.31-1.58,7.76-2.36,13.36-2.36s9.43.49,12.11,1.46c2.68.98,4.9,2.49,6.66,4.55,1.77,2.05,3.09,4.66,3.98,7.81l-14.55,2.6c-.6-1.84-1.62-3.25-3.05-4.23-1.43-.98-3.26-1.47-5.48-1.47-3.31,0-5.95,1.15-7.91,3.45-1.96,2.3-2.95,5.93-2.95,10.91,0,5.29.99,9.06,2.98,11.32,1.99,2.27,4.76,3.4,8.31,3.4,1.69,0,3.3-.24,4.83-.73,1.53-.49,3.29-1.32,5.26-2.5v-4.6h-10.09Z"/></g></svg>