<?xml version="1.0" encoding="UTF-8"?><svg id="Calque_2" xmlns="http://www.w3.org/2000/svg" viewBox="0 0 236.9 237.02"><defs><style>.cls-1{stroke-width:0px;}</style></defs><g id="Calque_1-2"><path class="cls-1" d="M125.8,237.02h-14.81c-.59-.13-1.18-.33-1.78-.38-25.88-2.11-48.86-11.4-68.28-28.63C10.53,181.06-2.98,147.01.55,106.58c2.2-25.25,12.12-47.55,29.04-66.44C52.7,14.33,81.75.88,116.4.04c22.42-.55,43.45,4.94,62.59,16.66,30.65,18.79,49.48,45.92,56.09,81.36.8,4.3,1.22,8.68,1.82,13.02v14.82c-.19,1.52-.4,3.04-.57,4.56-2.54,23.44-11.03,44.47-25.99,62.71-18.6,22.67-42.4,36.75-71.31,42.01-4.38.8-8.82,1.23-13.23,1.84ZM80.15,94.17c-.1,0-.19,0-.29,0,.19,3.31.41,6.62.56,9.93.16,3.37-.6,4.14-4.04,4.17-.76,0-1.56-.02-2.29-.23-1.77-.5-3.52-1.09-5.27-1.68-2.58-.86-5.97.4-6.97,2.62-.81,1.81.17,3.74,2.98,5.26,1.82.98,3.82,1.61,5.72,2.44,2.04.89,4.18,1.63,6.04,2.81,2.72,1.72,3.5,4.17,2.47,7.23-.63,1.88-1.48,3.73-2.48,5.45-6.17,10.66-14.41,18.79-26.81,21.84-1.07.26-2,1.07-3,1.63.69,1.05,1.2,2.31,2.11,3.09,1.03.87,2.37,1.49,3.67,1.87,3.32.98,6.65,2.05,10.05,2.53,2.81.39,3.89,1.7,4.46,4.3,1.33,6.06.6,6.24,7.54,4.92,8.14-1.55,15.8-.6,22.52,4.8,1.8,1.44,3.76,2.7,5.74,3.89,10.2,6.09,20.44,6.03,30.61-.05,2.44-1.46,4.78-3.12,7.08-4.8,4.27-3.12,9.04-4.65,14.29-4.42,3.22.14,6.43.61,9.64,1.01,3.01.37,3.41.13,4.16-2.84.34-1.34.7-2.68.98-4.04.33-1.59,1.28-2.23,2.85-2.53,3.4-.65,6.82-1.3,10.1-2.38,2.14-.7,4.24-1.89,5.98-3.31,1.78-1.46,1.15-3.02-1.12-3.53-14.96-3.35-24-13.42-30.04-26.74-1.62-3.57-.45-6.52,3.02-8.42,2.14-1.17,4.58-1.8,6.8-2.84,2.14-1.01,4.36-2,6.19-3.46,2.08-1.65,1.77-3.89-.45-5.4-2.18-1.48-4.45-1.57-7.03-.76-2.57.8-5.32,1.18-8.02,1.36-1.59.11-2.22-1.06-2.14-2.82.29-6.7.53-13.41.55-20.11.04-10.27-4.45-18.6-12.26-24.85-12.77-10.22-27.28-11.33-42.12-5.71-12.25,4.64-19.9,13.81-21.74,27.05-.58,4.16-.09,8.46-.09,12.7Z"/></g></svg>