<?xml version="1.0" encoding="UTF-8"?><svg id="Calque_2" xmlns="http://www.w3.org/2000/svg" viewBox="0 0 236.88 236.96"><defs><style>.cls-1{stroke-width:0px;}</style></defs><g id="Calque_1-2"><path class="cls-1" d="M110.98,0c4.94,0,9.87,0,14.81,0,.59.13,1.18.33,1.78.38,18.45,1.38,35.72,6.68,51.46,16.36,30.59,18.83,49.43,45.92,56.03,81.33.8,4.3,1.22,8.67,1.82,13.01v14.81c-.14.67-.3,1.34-.4,2.02-.78,5.25-1.26,10.57-2.36,15.76-11.1,52.35-57.42,91.37-110.79,93.21-31.15,1.07-58.94-8.25-82.37-28.89C10.49,181.14-2.98,147.03.55,106.62c2.25-25.75,12.55-48.33,29.92-67.48C48.74,19,71.34,6.45,98.2,1.79,102.43,1.05,106.72.59,110.98,0ZM49.43,188.58c.99-.21,1.65-.32,2.3-.49,11.1-2.89,22.18-5.84,33.31-8.64,1.19-.3,2.77-.09,3.88.46,13.02,6.39,26.71,8.83,41.09,6.98,39.45-5.07,67.02-41.89,60.97-81.32-5.97-38.9-43.09-65.59-81.96-58.9-47.85,8.23-73.49,60.7-50.64,103.54.57,1.07.71,2.67.4,3.85-3,11.38-6.15,22.73-9.36,34.51Z"/><path class="cls-1" d="M66.45,171.77c1.69-6.2,3.18-12.15,4.97-18.01.76-2.48.52-4.38-.85-6.65-21.59-35.67-.59-81.56,40.51-88.69,33.86-5.87,65.69,18.85,68.51,53.23,2.96,36.07-26.84,66.28-62.92,63.71-9.37-.67-18.08-3.54-26.23-8.24-.99-.57-2.49-.77-3.6-.51-6.29,1.5-12.53,3.19-18.79,4.82-.42.11-.85.18-1.6.34ZM139.46,150.62c1.13-.07,2.24-.01,3.28-.23,8.24-1.69,14.33-6.41,14.04-15.25-.03-.9-.65-2.21-1.38-2.58-4.72-2.43-9.53-4.69-14.33-6.95-1.67-.79-3.03-.45-4.19,1.17-1.57,2.19-3.38,4.2-5.05,6.31-1.07,1.35-2.32,1.52-3.89.9-10.4-4.15-18.33-11.14-24.08-20.7-.83-1.38-.83-2.5.21-3.77,1.47-1.78,2.97-3.58,4.12-5.56.57-.99.86-2.58.48-3.61-1.74-4.69-3.71-9.29-5.72-13.87-.4-.92-1.19-1.89-2.06-2.34-2.4-1.24-7.62-.27-9.56,1.62-5.52,5.38-7.46,11.89-5.91,19.41,1.32,6.44,4.94,11.72,8.81,16.84,7.49,9.9,16.18,18.42,27.68,23.56,5.61,2.51,11.27,5.02,17.57,5.04Z"/></g></svg>